<?xml version="1.0" encoding="utf-8"?><svg xmlns="http://www.w3.org/2000/svg" xmlns:xlink="http://www.w3.org/1999/xlink"><symbol viewBox="0 0 21 24" id="icon-1" xmlns="http://www.w3.org/2000/svg"><path fill-rule="evenodd" fill="#FFF" d="M8.379 18.698l-4.07-4.235L16.939.002l4.07 4.236-12.63 14.46zm-1.691 1.936L2.434 16.61l1.392-1.593 4.069 4.235-1.207 1.382zM.006 24.009l1.735-6.441 4.257 4.021-5.992 2.42z"/></symbol><symbol viewBox="0 0 21 17" id="icon-2" xmlns="http://www.w3.org/2000/svg"><path fill-rule="evenodd" fill="#FFF" d="M16.624 16.991v-1.317h2.882v-2.719h1.486v4.036h-4.368zm2.882-15.678h-2.882V-.004h4.368v4.036h-1.486V1.313zM1.492 4.032H.006V-.004h4.368v1.317H1.492v2.719zm1.396-1.317H18.11v11.557H2.888V2.715zm1.486 10.24h12.25V4.032H4.374v8.923zm1.441-7.521h9.413v6.119H5.815V5.434zm-4.323 10.24h2.882v1.317H.006v-4.036h1.486v2.719z"/></symbol><symbol viewBox="0 0 16 16" id="icon-3" xmlns="http://www.w3.org/2000/svg"><path fill-rule="evenodd" fill="#FFF" d="M0 16v-4h16v4H0zM0 6h16v4H0V6zm0-6h16v4H0V0z"/></symbol><symbol viewBox="0 0 26 24" id="icon-4" xmlns="http://www.w3.org/2000/svg"><path fill-rule="evenodd" fill="#FFF" d="M17.147 15.775L6.245 6.215l8.448 10.298-9.467 3.018L.352.182 26 13.006l-8.853 2.769zm-2.155 7.58l-3.116-4.399 3.116-.925v5.324z"/></symbol></svg>