<svg xmlns="http://www.w3.org/2000/svg" width="24" height="20"><path fill-rule="evenodd" fill="#2AACC8" d="M17.825 14.007h-1.558l-3.151-2.852c1.896-.627 3.015-1.587 3.547-2.163V8.37c-.655.117-2.129-.392-1.516-.694.315-.155.493-.448.599-.725a2.176 2.176 0 01-.105-.552l-.014-.27c-.038.012-.075.024-.117.024a.389.389 0 01-.385-.393v-.785c0-.217.172-.393.385-.393.012 0 .022.006.033.007l-.028-.508c-.077-1.401.956-2.607 2.312-2.607 1.355 0 2.386 1.206 2.309 2.607l-.029.508c.012-.001.021-.007.032-.007a.39.39 0 01.386.393v.785a.39.39 0 01-.386.393.387.387 0 01-.117-.024l-.015.27c-.012.22-.065.425-.136.621.109.255.282.514.571.656.596.293-.775.781-1.455.701v.615c.56.607 1.763 1.646 3.853 2.266 0 0 1.157.916 1.157 1.833v.916h-6.172zm-3.87-6.548a.649.649 0 01-.193-.038l-.025.431c-.067 1.179-.729 2.184-1.677 2.769v1.366c.921.969 2.9 2.627 6.335 3.616 0 0 1.903 1.462 1.903 2.924v1.462H0v-1.462c0-1.462 1.903-2.924 1.903-2.924 3.435-.989 5.413-2.647 6.335-3.616v-1.364c-.95-.584-1.613-1.59-1.68-2.771l-.024-.431a.636.636 0 01-.191.038.63.63 0 01-.634-.626V5.58a.63.63 0 01.634-.627c.019 0 .035.009.053.011l-.045-.811C6.225 1.918 7.923-.006 10.152-.006c2.228 0 3.925 1.924 3.797 4.159l-.047.811c.019-.002.034-.011.053-.011a.63.63 0 01.634.627v1.253a.63.63 0 01-.634.626z"/></svg>