<svg xmlns="http://www.w3.org/2000/svg" width="20" height="26"><path fill-rule="evenodd" fill="#FFF" d="M19.361 6.808l-3.5 6.062a1.999 1.999 0 01-2.732.732l-.866-.5 1-1.732a.999.999 0 001.366-.366l2.5-4.33a1 1 0 00-.366-1.366l-3.464-2a1 1 0 00-1.366.366l-2.5 4.33a1 1 0 00.366 1.366l-1 1.732-.866-.5a2 2 0 01-.732-2.732l3.5-6.062a2 2 0 012.732-.732l5.196 3a2 2 0 01.732 2.732zM7.531 17.299a1 1 0 01-.366-1.366l4-6.929a1 1 0 011.732 1l-4 6.929a1 1 0 01-1.366.366zm-.732-2.732a.999.999 0 00-1.366.366l-2.5 4.33a1 1 0 00.366 1.366l3.464 2a1 1 0 001.366-.366l2.5-4.33a1 1 0 00-.366-1.366l1-1.732.866.499a2.001 2.001 0 01.732 2.733l-3.5 6.062a2 2 0 01-2.732.732l-5.196-3a2 2 0 01-.732-2.732l3.5-6.062a2 2 0 012.732-.733l.866.5-1 1.733z"/></svg>